<svg xmlns="http://www.w3.org/2000/svg" width="70.394" height="24.881" viewBox="0 0 70.394 24.881">
  <g id="sunglasses-sun-svgrepo-com" transform="translate(0 -165.517)">
    <g id="Group_1666" data-name="Group 1666" transform="translate(18.402 165.531)">
      <path id="Path_6676" data-name="Path 6676" d="M145.661,168.146a6.53,6.53,0,0,1,1.872,2.527h6.206a6.534,6.534,0,0,1,1.872-2.527,8.026,8.026,0,0,1,2-1.191c2.305-.975,5.513-1.274,9.82-1.337H133.841c4.307.062,7.515.361,9.82,1.337A8.021,8.021,0,0,1,145.661,168.146Z" transform="translate(-133.841 -165.619)" fill="#a9a8ae"/>
      <path id="Path_6677" data-name="Path 6677" d="M232.914,239.142h-4.948a13.136,13.136,0,0,1-.547,2.527,16.26,16.26,0,0,1-1.054,2.527h8.149a16.259,16.259,0,0,1-1.054-2.527A13.125,13.125,0,0,1,232.914,239.142Z" transform="translate(-213.645 -229.033)" fill="#a9a8ae"/>
    </g>
    <path id="Path_6678" data-name="Path 6678" d="M5.348,208.85H2.527a2.527,2.527,0,1,0,0,5.054h1.49a15.276,15.276,0,0,1,.4-2.527A12.205,12.205,0,0,1,5.348,208.85Z" transform="translate(0 -37.375)" fill="#57575c"/>
    <path id="Path_6679" data-name="Path 6679" d="M475.925,208.85H473.1a12.229,12.229,0,0,1,.927,2.527,15.348,15.348,0,0,1,.4,2.527h1.49a2.527,2.527,0,1,0,0-5.054Z" transform="translate(-408.058 -37.375)" fill="#77757f"/>
    <path id="Path_6680" data-name="Path 6680" d="M57.58,175.64a10.759,10.759,0,0,0,.068-1.187,9.823,9.823,0,0,0-.7-3.867,6.532,6.532,0,0,0-1.872-2.527,8.026,8.026,0,0,0-2-1.191c-2.305-.975-5.513-1.274-9.82-1.337-.66-.01-1.344-.014-2.057-.014-5.262,0-9.083,2.145-11,5.957A12.223,12.223,0,0,0,29.278,174a15.314,15.314,0,0,0-.4,2.527q-.054.7-.054,1.428A12.425,12.425,0,0,0,41.2,190.4a16.155,16.155,0,0,0,11.772-5.459,19.133,19.133,0,0,0,3.007-4.245,16.259,16.259,0,0,0,1.054-2.527A13.1,13.1,0,0,0,57.58,175.64Z" transform="translate(-24.857)" fill="#5286fa"/>
    <path id="Path_6681" data-name="Path 6681" d="M300.941,171.477c-1.913-3.813-5.734-5.957-11-5.957-.713,0-1.4,0-2.057.014-4.307.062-7.515.361-9.82,1.337a8.018,8.018,0,0,0-2,1.191,6.533,6.533,0,0,0-1.872,2.527,9.823,9.823,0,0,0-.7,3.867,10.83,10.83,0,0,0,.068,1.187,13.142,13.142,0,0,0,.547,2.527,16.261,16.261,0,0,0,1.054,2.527,19.132,19.132,0,0,0,3.007,4.245,16.156,16.156,0,0,0,11.772,5.459,12.425,12.425,0,0,0,12.382-12.44q0-.733-.054-1.428a15.366,15.366,0,0,0-.4-2.527A12.226,12.226,0,0,0,300.941,171.477Z" transform="translate(-235.895 -0.003)" fill="#9bc9ff"/>
    <path id="Path_6682" data-name="Path 6682" d="M41.2,165.518c-5.262,0-9.083,2.145-11,5.957A12.223,12.223,0,0,0,29.28,174a15.285,15.285,0,0,0-.4,2.527q-.054.7-.054,1.428A12.425,12.425,0,0,0,41.2,190.4a14.406,14.406,0,0,0,2.005-.141V165.531C42.564,165.522,41.9,165.518,41.2,165.518Z" transform="translate(-24.859 -0.001)" fill="#424ede"/>
    <path id="Path_6683" data-name="Path 6683" d="M287.887,165.616c-4.307.062-7.515.361-9.82,1.337a8.018,8.018,0,0,0-2,1.191,6.533,6.533,0,0,0-1.872,2.527,9.823,9.823,0,0,0-.7,3.867,10.83,10.83,0,0,0,.068,1.187,13.142,13.142,0,0,0,.547,2.527,16.261,16.261,0,0,0,1.054,2.527,19.131,19.131,0,0,0,3.007,4.245,16.6,16.6,0,0,0,9.766,5.319V165.615Z" transform="translate(-235.894 -0.085)" fill="#57a4ff"/>
  </g>
</svg>
