<svg xmlns="http://www.w3.org/2000/svg" width="47.767" height="51.086" viewBox="0 0 47.767 51.086">
  <g id="shopping-bags-svgrepo-com_1_" data-name="shopping-bags-svgrepo-com (1)" transform="translate(-6.54 -3.378)">
    <path id="Path_6631" data-name="Path 6631" d="M26.109,19.321c-.312-2.361-.84-6.522-.49-8.812s1.264-4.4,3.171-5.237a4.093,4.093,0,0,1,4.9,1.821,11.706,11.706,0,0,1,1.392,3.5,60.7,60.7,0,0,1,1.367,7.228" transform="translate(-11.081)" fill="none" stroke="#00796b" stroke-width="3"/>
    <path id="Path_6632" data-name="Path 6632" d="M16.586,59.158,6.54,54.972,8.872,44.689l-.5-23.434L33.794,18.27v2.22l6.048.765Z" transform="translate(0 -7.753)" fill="#26a69a"/>
    <path id="Path_6633" data-name="Path 6633" d="M53.078,59.529,27.661,63.378,25.5,49.919V29.295L50.921,25.45V46.07Z" transform="translate(-11.079 -11.948)" fill="#61de9f"/>
    <path id="Path_6634" data-name="Path 6634" d="M17,25.321V23L10.95,21.476,36.421,18.65l.815,1.8,5.183,1.022Z" transform="translate(-2.577 -7.975)" fill="#263238"/>
    <path id="Path_6635" data-name="Path 6635" d="M6.54,64.573c.175,0,6.019-4.635,6.019-4.635l4.023,8.845-.865-14.1L14.408,34.7l-1.7,21.593Z" transform="translate(0 -17.354)" fill="#00796b"/>
    <path id="Path_6636" data-name="Path 6636" d="M36.352,18.659l.615,1.422.079.187.2.05,3.1.794L17.419,24.582V22.421l-.316-.079-3.857-.973,23.106-2.71m.262-.449L10.96,21.219l6.048,1.525v2.323l25.417-3.849L37.35,19.914l-.736-1.7Z" transform="translate(-2.583 -7.718)" fill="#26a69a"/>
    <path id="Path_6637" data-name="Path 6637" d="M42.37,20.709c-.312-2.357-3.558-11.41,2.656-12.565,4.7-.873,6.771,9.132,7.045,11.326" transform="translate(-20.28 -1.804)" fill="none" stroke="#61de9f" stroke-width="3"/>
    <path id="Path_6638" data-name="Path 6638" d="M44.746,34.444c-.362-1.218-.74-3.679-.756-3.787l1.23-.187a24.9,24.9,0,0,0,.927,3.712Z" transform="translate(-21.884 -14.882)" fill="#26a69a"/>
    <path id="Path_6639" data-name="Path 6639" d="M68.066,30.894c-.362-1.218-.74-3.679-.756-3.787l1.23-.187a33.931,33.931,0,0,0,.944,3.716l-1.417.258Z" transform="translate(-35.511 -12.807)" fill="#26a69a"/>
    <path id="Path_6640" data-name="Path 6640" d="M46.84,79.275l3.491-6.048L48.665,57.1,62.618,54.39,55.136,78.036Z" transform="translate(-23.549 -28.86)" fill="#26a69a"/>
    <g id="Group_1658" data-name="Group 1658" transform="translate(27.052 18.821)">
      <path id="Path_6641" data-name="Path 6641" d="M72.759,46.062s-1.571-8.342,3.662-7.789c2.847.3,2.731,6.921,2.731,6.921" transform="translate(-65.618 -38.247)" fill="none" stroke="#d7578a" stroke-width="3"/>
      <path id="Path_6642" data-name="Path 6642" d="M63.609,79.784l-7.719-3.23,1.8-7.906L57.3,50.634,76.839,48.34v1.708l4.647.586Z" transform="translate(-55.89 -44.145)" fill="#d7578a"/>
      <path id="Path_6643" data-name="Path 6643" d="M91.664,80.054,72.128,83.014,70.47,72.668V56.819L90.006,53.86V69.713Z" transform="translate(-64.41 -47.37)" fill="#ff9f9f"/>
      <path id="Path_6644" data-name="Path 6644" d="M63.937,53.594l-1.563-1.2L59.29,50.634,78.826,48.34,80.6,49.458l2.872,1.176Z" transform="translate(-57.877 -44.145)" fill="#263238"/>
      <path id="Path_6645" data-name="Path 6645" d="M78.751,48.768l3.346,1.65L64.024,53.153,60.5,50.909l18.255-2.141m.075-.428L59.29,50.634l4.647,2.959,19.536-2.959Z" transform="translate(-57.877 -44.145)" fill="#d7578a"/>
      <path id="Path_6646" data-name="Path 6646" d="M85.548,60.533a29.332,29.332,0,0,1-.578-2.9l1.1-.141c0,.021.283,1.924.54,2.8Z" transform="translate(-72.883 -49.492)" fill="#d7578a"/>
      <path id="Path_6647" data-name="Path 6647" d="M103.438,57.788a29.331,29.331,0,0,1-.578-2.9l1.085-.137a25,25,0,0,0,.486,2.86Z" transform="translate(-83.337 -47.89)" fill="#d7578a"/>
      <path id="Path_6648" data-name="Path 6648" d="M83.659,50.682c-.241-1.812-2.71-9.452,1.945-10.1,3.637-.5,5.2,7.02,5.416,8.7" transform="translate(-71.609 -39.6)" fill="none" stroke="#ff9f9f" stroke-width="3"/>
    </g>
    <path id="Path_6649" data-name="Path 6649" d="M55.89,83.742,59.835,80.4l3.774,6.576-1.65-10.283.017-15.861-.466-.191L60.038,76.763Z" transform="translate(-28.838 -32.512)" fill="#ab2c5e"/>
  </g>
</svg>
