<svg xmlns="http://www.w3.org/2000/svg" width="43.175" height="42.455" viewBox="0 0 43.175 42.455">
  <g id="makeup-woman-svgrepo-com" transform="translate(0 -3.267)">
    <path id="Path_6600" data-name="Path 6600" d="M401.067,381.713H409.7V370.2h-8.635Z" transform="translate(-367.247 -335.991)" fill="#434c6d"/>
    <path id="Path_6601" data-name="Path 6601" d="M418.133,331.131h5.757v-2.3a1.29,1.29,0,0,0-1.3-1.3h-3.166a1.29,1.29,0,0,0-1.3,1.3Z" transform="translate(-382.874 -296.922)" fill="#252e49"/>
    <path id="Path_6602" data-name="Path 6602" d="M444.454,31.331a.68.68,0,0,1-.72-.72V3.987a.72.72,0,1,1,1.439,0V30.611A.68.68,0,0,1,444.454,31.331Z" transform="translate(-406.316)"/>
    <path id="Path_6603" data-name="Path 6603" d="M423.171,269.24h-4.317a.72.72,0,1,1,0-1.439h4.317a.72.72,0,1,1,0,1.439Z" transform="translate(-382.875 -242.227)"/>
    <path id="Path_6604" data-name="Path 6604" d="M416.076,243.64H410.32a.72.72,0,0,1,0-1.439h5.757a.72.72,0,0,1,0,1.439Z" transform="translate(-375.06 -218.786)"/>
    <path id="Path_6605" data-name="Path 6605" d="M408.982,218.04h-7.2a.72.72,0,0,1,0-1.439h7.2a.72.72,0,1,1,0,1.439Z" transform="translate(-367.247 -195.345)"/>
    <path id="Path_6606" data-name="Path 6606" d="M401.889,192.44h-8.635a.72.72,0,1,1,0-1.439h8.635a.72.72,0,1,1,0,1.439Z" transform="translate(-359.433 -171.903)"/>
    <path id="Path_6607" data-name="Path 6607" d="M401.889,166.84h-8.635a.72.72,0,1,1,0-1.439h8.635a.72.72,0,0,1,0,1.439Z" transform="translate(-359.433 -148.462)"/>
    <path id="Path_6608" data-name="Path 6608" d="M401.889,141.24h-8.635a.72.72,0,1,1,0-1.439h8.635a.72.72,0,0,1,0,1.439Z" transform="translate(-359.433 -125.021)"/>
    <path id="Path_6609" data-name="Path 6609" d="M401.889,115.64h-8.635a.72.72,0,1,1,0-1.439h8.635a.72.72,0,0,1,0,1.439Z" transform="translate(-359.433 -101.579)"/>
    <path id="Path_6610" data-name="Path 6610" d="M408.982,90.039h-7.2a.72.72,0,0,1,0-1.439h7.2a.72.72,0,0,1,0,1.439Z" transform="translate(-367.247 -78.137)"/>
    <path id="Path_6611" data-name="Path 6611" d="M416.076,64.44H410.32a.72.72,0,0,1,0-1.439h5.757a.72.72,0,0,1,0,1.439Z" transform="translate(-375.06 -54.697)"/>
    <path id="Path_6612" data-name="Path 6612" d="M423.171,38.84h-4.317a.72.72,0,1,1,0-1.439h4.317a.72.72,0,0,1,0,1.439Z" transform="translate(-382.875 -31.256)"/>
    <path id="Path_6613" data-name="Path 6613" d="M430.265,13.239h-2.878a.72.72,0,0,1,0-1.439h2.878a.72.72,0,0,1,0,1.439Z" transform="translate(-390.688 -7.813)"/>
    <path id="Path_6614" data-name="Path 6614" d="M230.4,350.458h8.635V336.067H230.4Z" transform="translate(-210.971 -304.736)" fill="#434c6d"/>
    <path id="Path_6615" data-name="Path 6615" d="M230.4,297h8.635v-3.6H230.4Z" transform="translate(-210.971 -265.667)" fill="#252e49"/>
    <path id="Path_6616" data-name="Path 6616" d="M252.769,114.249c.72.72.144,2.519-1.3,3.958s-3.238,2.087-3.958,1.3-.144-2.519,1.3-3.958,3.238-2.015,3.958-1.3" transform="translate(-226.361 -101.34)" fill="#f4a2b4"/>
    <path id="Path_6617" data-name="Path 6617" d="M251.641,137.27c-1.439,1.439-3.238,2.087-3.958,1.3a1.573,1.573,0,0,1-.216-.36v9.858h5.757V134.68a6.006,6.006,0,0,1-1.583,2.59" transform="translate(-226.599 -120.332)" fill="#d75d72"/>
    <g id="Group_1657" data-name="Group 1657" transform="translate(5.037 3.987)">
      <path id="Path_6618" data-name="Path 6618" d="M69.808,482.573H60.454a.72.72,0,1,1,0-1.439h9.354a.72.72,0,1,1,0,1.439" transform="translate(-59.734 -441.557)" fill="#252e49"/>
      <path id="Path_6619" data-name="Path 6619" d="M69.808,439.906H60.454a.72.72,0,0,1,0-1.439h9.354a.72.72,0,0,1,0,1.439" transform="translate(-59.734 -402.488)" fill="#252e49"/>
      <path id="Path_6620" data-name="Path 6620" d="M69.808,397.24H60.454a.72.72,0,0,1,0-1.439h9.354a.72.72,0,0,1,0,1.439" transform="translate(-59.734 -363.42)" fill="#252e49"/>
      <path id="Path_6621" data-name="Path 6621" d="M69.808,354.573H60.454a.72.72,0,0,1,0-1.439h9.354a.72.72,0,0,1,0,1.439" transform="translate(-59.734 -324.351)" fill="#252e49"/>
      <path id="Path_6622" data-name="Path 6622" d="M69.808,311.906H60.454a.72.72,0,0,1,0-1.439h9.354a.72.72,0,0,1,0,1.439" transform="translate(-59.734 -285.282)" fill="#252e49"/>
      <path id="Path_6623" data-name="Path 6623" d="M69.808,269.24H60.454a.72.72,0,1,1,0-1.439h9.354a.72.72,0,1,1,0,1.439" transform="translate(-59.734 -246.214)" fill="#252e49"/>
      <path id="Path_6624" data-name="Path 6624" d="M69.808,226.573H60.454a.72.72,0,0,1,0-1.439h9.354a.72.72,0,0,1,0,1.439" transform="translate(-59.734 -207.145)" fill="#252e49"/>
      <path id="Path_6625" data-name="Path 6625" d="M69.808,183.906H60.454a.72.72,0,1,1,0-1.439h9.354a.72.72,0,1,1,0,1.439" transform="translate(-59.734 -168.076)" fill="#252e49"/>
      <path id="Path_6626" data-name="Path 6626" d="M69.808,141.24H60.454a.72.72,0,0,1,0-1.439h9.354a.72.72,0,1,1,0,1.439" transform="translate(-59.734 -129.007)" fill="#252e49"/>
      <path id="Path_6627" data-name="Path 6627" d="M69.808,98.573H60.454a.72.72,0,0,1,0-1.439h9.354a.72.72,0,0,1,0,1.439" transform="translate(-59.734 -89.938)" fill="#252e49"/>
      <path id="Path_6628" data-name="Path 6628" d="M69.808,55.906H60.454a.72.72,0,0,1,0-1.439h9.354a.72.72,0,1,1,0,1.439" transform="translate(-59.734 -50.869)" fill="#252e49"/>
      <path id="Path_6629" data-name="Path 6629" d="M69.808,13.24H60.454a.72.72,0,0,1,0-1.439h9.354a.72.72,0,1,1,0,1.439" transform="translate(-59.734 -11.801)" fill="#252e49"/>
    </g>
    <path id="Path_6630" data-name="Path 6630" d="M3.454,11.8A3.5,3.5,0,0,0,0,15.254V49.29a3.517,3.517,0,0,0,3.454,3.526H6.476V11.8Z" transform="translate(0 -7.813)" fill="#434c6d"/>
  </g>
</svg>
