<svg xmlns="http://www.w3.org/2000/svg" width="43.83" height="41.44" viewBox="0 0 43.83 41.44">
  <g id="hair-clip-beauty-svgrepo-com" transform="translate(0 -13.958)">
    <path id="Path_6650" data-name="Path 6650" d="M35.306,35.676a4.607,4.607,0,0,1-2.527-1.468,4.856,4.856,0,0,1,.214-6.407c6-6.628,5.358-9.971,5.358-9.971A5.277,5.277,0,0,0,36.786,14.7a3.938,3.938,0,0,0-2.146-.707,5.285,5.285,0,0,0-3.873,1.1,17.183,17.183,0,0,1-8.852,3.52,17.183,17.183,0,0,1-8.852-3.52,5.285,5.285,0,0,0-3.873-1.1,3.938,3.938,0,0,0-2.146.707,5.277,5.277,0,0,0-1.565,3.131s-.643,3.343,5.358,9.971a4.856,4.856,0,0,1,.214,6.407,4.607,4.607,0,0,1-2.527,1.468,13.325,13.325,0,0,0-4.413,1.752C2.177,38.692,0,40.617,0,42.875v4.7S0,51.484,3.913,55.4V45.223s-.391-2.348,3.131-2.348a6.816,6.816,0,0,1,2.037.224,2.338,2.338,0,0,1,1.554,2.986c-.592,1.8-1.565,6.079,1.105,9.313,0,0,1.565-10.957,5.479-10.957a2.119,2.119,0,0,1,2.348,2.348S17.9,55.4,21.915,55.4s2.348-8.609,2.348-8.609a2.119,2.119,0,0,1,2.348-2.348c3.913,0,5.479,10.957,5.479,10.957,2.613-3.164,1.738-7.325,1.144-9.192a2.474,2.474,0,0,1,1.777-3.174,6.971,6.971,0,0,1,1.776-.157c3.555,0,3.131,2.348,3.131,2.348V55.4c3.913-3.913,3.913-7.827,3.913-7.827v-4.7c0-2.258-2.177-4.183-4.111-5.447a13.327,13.327,0,0,0-4.413-1.752" fill="#434c6d"/>
    <path id="Path_6651" data-name="Path 6651" d="M193.031,155.307H185.2a2.348,2.348,0,0,1-2.348-2.348h0a2.348,2.348,0,0,1,2.348-2.348h7.827a2.348,2.348,0,0,1,2.348,2.348h0a2.348,2.348,0,0,1-2.348,2.348" transform="translate(-167.203 -124.955)" fill="#252e49"/>
  </g>
</svg>
