<svg xmlns="http://www.w3.org/2000/svg" width="40.175" height="41.624" viewBox="0 0 40.175 41.624">
  <g id="necklace-svgrepo-com" transform="translate(-8.909 0)">
    <path id="Path_6586" data-name="Path 6586" d="M242.809,251a1.339,1.339,0,0,1-1.339-1.339v-8.052a1.339,1.339,0,1,1,2.678,0v8.052A1.339,1.339,0,0,1,242.809,251Z" transform="translate(-213.655 -220.737)" fill="#ff9f19"/>
    <path id="Path_6587" data-name="Path 6587" d="M259.28,249.661v-8.052a1.339,1.339,0,0,0-1.339-1.339V251A1.339,1.339,0,0,0,259.28,249.661Z" transform="translate(-228.787 -220.737)" fill="#f28618"/>
    <path id="Path_6588" data-name="Path 6588" d="M152.021,326.759a1.335,1.335,0,0,1-.947-.392l-6.857-6.857a5.355,5.355,0,1,1,7.574-7.574l.23.23.23-.23a5.355,5.355,0,1,1,7.574,7.574l-6.857,6.857A1.334,1.334,0,0,1,152.021,326.759Z" transform="translate(-122.867 -285.135)" fill="#ffe14d"/>
    <path id="Path_6589" data-name="Path 6589" d="M258.887,326.368l6.857-6.857a5.355,5.355,0,1,0-7.574-7.574l-.23.23V326.76A1.335,1.335,0,0,0,258.887,326.368Z" transform="translate(-228.786 -285.136)" fill="#fc3"/>
    <path id="Path_6590" data-name="Path 6590" d="M49.083,1.957a20.026,20.026,0,0,1-5.831,14.292,20.026,20.026,0,0,1-14.1,5.947A20.221,20.221,0,0,1,8.915,2.134l-.006-.785a1.339,1.339,0,0,1,2.678-.02l.006.785a17.539,17.539,0,0,0,17.541,17.4h.021A17.427,17.427,0,0,0,46.405,1.978L46.4,1.372a1.339,1.339,0,0,1,2.678-.02Z" transform="translate(0)" fill="#ffe14d"/>
    <path id="Path_6591" data-name="Path 6591" d="M178.3,343.325a2.676,2.676,0,0,0-1.893,4.57l5.91,5.91,5.91-5.91a2.678,2.678,0,1,0-3.787-3.787l-1.177,1.177a1.339,1.339,0,0,1-1.893,0l-1.177-1.177A2.668,2.668,0,0,0,178.3,343.325Z" transform="translate(-153.164 -315.413)" fill="#e6563a"/>
    <path id="Path_6592" data-name="Path 6592" d="M263.864,347.895a2.678,2.678,0,1,0-3.787-3.787l-1.177,1.177a1.335,1.335,0,0,1-.947.392V353.8Z" transform="translate(-228.799 -315.413)" fill="#d9472b"/>
    <path id="Path_6593" data-name="Path 6593" d="M277.869,2.208A20.026,20.026,0,0,1,272.039,16.5a20.027,20.027,0,0,1-14.1,5.947V19.769A17.427,17.427,0,0,0,275.191,2.228l-.006-.606a1.339,1.339,0,0,1,2.678-.02Z" transform="translate(-228.786 -0.251)" fill="#fc3"/>
  </g>
</svg>
