<svg id="Layer_x0020_1" xmlns="http://www.w3.org/2000/svg" width="60" height="60" viewBox="0 0 60 60">
  <g id="_439855472" transform="translate(7.475 8.658)">
    <path id="Path_6575" data-name="Path 6575" d="M796.029,299.5c.5.029,1.314-2.132,1.635-1.781,2.657,2.891,8.03,2.628,9.928.058.438-.613.934,1.927,1.694,1.723v12.469H796V299.5Z" transform="translate(-780.232 -297.649)" fill="#880e4f" fill-rule="evenodd"/>
    <path id="Path_6576" data-name="Path 6576" d="M1539.446,1585.029c.059,1.139.088,2.248.146,3.241l.029.964h-7.446l-.029-.905L1532,1585h7.5Z" transform="translate(-1494.74 -1547.375)" fill="#880e4f" fill-rule="evenodd"/>
    <path id="Path_6577" data-name="Path 6577" d="M263.621,1586l-.146,3.329-.029.905H256l.029-.964c.029-.993.088-2.1.146-3.241h7.5Z" transform="translate(-256 -1548.346)" fill="#880e4f" fill-rule="evenodd"/>
    <path id="Path_6578" data-name="Path 6578" d="M291.412,354.029c2.891.058,8.293.555,9.636,3.5,1.08,2.394,1.986,4.468,2.745,6.453a53.93,53.93,0,0,1,1.869,5.84,77.185,77.185,0,0,1,1.343,11.213c.2,3.008.35,6.191.5,9.081H300l-.818-17.374-1.781-4.468v22.689h0a3.889,3.889,0,0,1-3.854,3.854H276.958a3.889,3.889,0,0,1-3.854-3.854v-22.66l-1.781,4.468L270.5,390.15H263c.117-2.891.292-6.1.5-9.081a73.262,73.262,0,0,1,1.343-11.213,51.95,51.95,0,0,1,1.869-5.84c.759-1.986,1.664-4.088,2.745-6.453a5.462,5.462,0,0,1,3.5-2.628,26.833,26.833,0,0,1,6.1-.934c.146,3.679,2.862,6.629,6.191,6.629,3.3,0,6.015-2.92,6.191-6.57Z" transform="translate(-262.796 -352.321)" fill="#c72464" fill-rule="evenodd"/>
    <path id="Path_6579" data-name="Path 6579" d="M811.95,306.089c-3.738,0-6.044-4.614-5.986-7.913l.613-.964c.526-.788.876-1.022.934-.2.2,2.57,1.606,6.453,4.818,6.716Z" transform="translate(-789.904 -296.497)" fill="#780b45"/>
    <path id="Path_6580" data-name="Path 6580" d="M1024.38,306.089c3.738,0,6.044-4.614,5.986-7.913l-.613-.964c-.526-.788-.876-1.022-.934-.2-.2,2.57-1.606,6.453-4.818,6.716Z" transform="translate(-1001.574 -296.497)" fill="#780b45"/>
    <g id="Group_1654" data-name="Group 1654" transform="translate(20.411 9.096)">
      <path id="Path_6581" data-name="Path 6581" d="M957.8,776H955.5l-.5,9.695,4.847,3.942Z" transform="translate(-955 -771.094)" fill="#880e4f" fill-rule="evenodd"/>
      <path id="Path_6582" data-name="Path 6582" d="M959.847,1127.446l.263,1.9-5.11,5.548.613-10.892Z" transform="translate(-955 -1108.932)" fill="#f06292" fill-rule="evenodd"/>
      <path id="Path_6583" data-name="Path 6583" d="M955.788,608h2.278l1.08,6.074L955,622.6Z" transform="translate(-955 -608)" fill="#f06292" fill-rule="evenodd"/>
    </g>
    <g id="Group_1655" data-name="Group 1655" transform="translate(18.335 8.229)">
      <path id="Path_6584" data-name="Path 6584" d="M884.821,578.484c1.285.584,2.628,1.08,2.628,1.4,0,.35-1.343,1.4-2.628,1.4s-.876-.642-.876-1.4C883.945,579.1,883.536,577.87,884.821,578.484Z" transform="translate(-883.883 -578.318)" fill="#ff6d00" fill-rule="evenodd"/>
      <path id="Path_6585" data-name="Path 6585" d="M1052.628,578.484c-1.285.584-2.628,1.08-2.628,1.4,0,.35,1.343,1.4,2.628,1.4s.876-.642.876-1.4C1053.5,579.1,1053.913,577.87,1052.628,578.484Z" transform="translate(-1045.149 -578.318)" fill="#ff6d00" fill-rule="evenodd"/>
    </g>
    <ellipse id="Ellipse_90" data-name="Ellipse 90" cx="1" cy="1.5" rx="1" ry="1.5" transform="translate(21.524 8.342)" fill="#e65100"/>
  </g>
  <rect id="Rectangle_31" data-name="Rectangle 31" width="60" height="60" fill="none"/>
</svg>
