<svg xmlns="http://www.w3.org/2000/svg" width="37.446" height="45.766" viewBox="0 0 37.446 45.766">
  <g id="teddy-bear-bear-svgrepo-com" transform="translate(-46.536)">
    <g id="Group_1659" data-name="Group 1659" transform="translate(46.536 1.019)">
      <path id="Path_6652" data-name="Path 6652" d="M130.942,286.449v17.509a1.4,1.4,0,0,0,1.406,1.383h19.545a1.4,1.4,0,0,0,1.406-1.383V286.449Z" transform="translate(-123.397 -261.863)" fill="#ddb185"/>
      <ellipse id="Ellipse_91" data-name="Ellipse 91" cx="5.291" cy="5.205" rx="5.291" ry="5.205" fill="#ddb185"/>
    </g>
    <path id="Path_6653" data-name="Path 6653" d="M79.466,46.336A2.536,2.536,0,1,1,82.044,43.8,2.56,2.56,0,0,1,79.466,46.336Z" transform="translate(-27.639 -37.576)" fill="#fff"/>
    <ellipse id="Ellipse_92" data-name="Ellipse 92" cx="5.291" cy="5.205" rx="5.291" ry="5.205" transform="translate(73.399 1.019)" fill="#ddb185"/>
    <path id="Path_6654" data-name="Path 6654" d="M380.008,46.336a2.536,2.536,0,1,1,2.578-2.536A2.56,2.56,0,0,1,380.008,46.336Z" transform="translate(-301.317 -37.576)" fill="#fff"/>
    <ellipse id="Ellipse_93" data-name="Ellipse 93" cx="16.24" cy="15.976" rx="16.24" ry="15.976" transform="translate(49.019 0)" fill="#edd7be"/>
    <path id="Path_6655" data-name="Path 6655" d="M77.343,15.976A16.081,16.081,0,0,1,92.069.07c-.5-.045-1-.07-1.515-.07a16.11,16.11,0,0,0-16.24,15.976,16.11,16.11,0,0,0,16.24,15.976c.511,0,1.016-.024,1.515-.07A16.081,16.081,0,0,1,77.343,15.976Z" transform="translate(-25.295 0)" opacity="0.1"/>
    <path id="Path_6656" data-name="Path 6656" d="M199.158,188.768a6.137,6.137,0,0,1-6.187,6.086h0a6.137,6.137,0,0,1-6.187-6.086v-3.181a6.137,6.137,0,0,1,6.187-6.086h0a6.137,6.137,0,0,1,6.187,6.086Z" transform="translate(-127.713 -163.456)" fill="#fff"/>
    <path id="Path_6657" data-name="Path 6657" d="M127.128,261.94a1.386,1.386,0,0,1-.981-.407l-9.571-9.582a7.165,7.165,0,1,1,10.131-10.134l.42.421.421-.421a7.165,7.165,0,0,1,10.131,10.135l-9.57,9.581A1.389,1.389,0,0,1,127.128,261.94Z" transform="translate(-61.869 -218.291)" fill="#ff8163"/>
    <g id="Group_1660" data-name="Group 1660" transform="translate(52.609 21.464)" opacity="0.1">
      <path id="Path_6658" data-name="Path 6658" d="M119.594,251.3a7.166,7.166,0,0,1,0-10.134,7.206,7.206,0,0,1,1.329-1.048,7.166,7.166,0,0,0-4.344,12.2l9.571,9.582a1.385,1.385,0,0,0,1.962,0l1.033-1.034Z" transform="translate(-114.48 -240.121)"/>
    </g>
    <g id="Group_1661" data-name="Group 1661" transform="translate(49.612 25)">
      <path id="Path_6659" data-name="Path 6659" d="M362.364,284.457a2.859,2.859,0,0,0,2.882,2.836h0a2.859,2.859,0,0,0,2.883-2.836V282.52a2.859,2.859,0,0,0-2.883-2.835h0a2.859,2.859,0,0,0-2.882,2.835Z" transform="translate(-337.21 -279.685)" fill="#edd7be"/>
      <path id="Path_6660" data-name="Path 6660" d="M80.952,284.457a2.859,2.859,0,0,0,2.883,2.836h0a2.859,2.859,0,0,0,2.883-2.836V282.52a2.859,2.859,0,0,0-2.883-2.835h0a2.859,2.859,0,0,0-2.883,2.835Z" transform="translate(-80.952 -279.685)" fill="#edd7be"/>
    </g>
    <path id="Path_6661" data-name="Path 6661" d="M235.332,176.726a1.883,1.883,0,0,1-1.9,1.867h-.7a1.883,1.883,0,0,1-1.9-1.867h0a1.883,1.883,0,0,1,1.9-1.867h.7a1.883,1.883,0,0,1,1.9,1.867Z" transform="translate(-167.823 -159.229)" fill="#8c6239"/>
    <path id="Path_6662" data-name="Path 6662" d="M95.207,388.38a4.8,4.8,0,0,1-4.838,4.759h0a4.8,4.8,0,0,1-4.838-4.759v-2.15a4.8,4.8,0,0,1,4.838-4.759h0a4.8,4.8,0,0,1,4.838,4.759Z" transform="translate(-35.509 -347.373)" fill="#edd7be"/>
    <path id="Path_6663" data-name="Path 6663" d="M82.933,284.455v-1.936a2.84,2.84,0,0,1,1.892-2.664,2.922,2.922,0,0,0-.99-.172,2.859,2.859,0,0,0-2.883,2.835v1.936a2.859,2.859,0,0,0,2.883,2.836,2.917,2.917,0,0,0,.99-.172A2.839,2.839,0,0,1,82.933,284.455Z" transform="translate(-31.34 -254.683)" opacity="0.1"/>
    <path id="Path_6664" data-name="Path 6664" d="M87.512,388.38v-2.15a4.781,4.781,0,0,1,3.847-4.659,4.941,4.941,0,0,0-.99-.1,4.8,4.8,0,0,0-4.838,4.759v2.15a4.8,4.8,0,0,0,4.838,4.759,4.94,4.94,0,0,0,.99-.1A4.78,4.78,0,0,1,87.512,388.38Z" transform="translate(-35.509 -347.373)" opacity="0.1"/>
    <g id="Group_1662" data-name="Group 1662" transform="translate(51.958 36.204)">
      <path id="Path_6665" data-name="Path 6665" d="M107.913,416.156a.722.722,0,0,1-.723-.723v-.1a.723.723,0,1,1,1.445,0v.1A.722.722,0,0,1,107.913,416.156Z" transform="translate(-107.19 -413.752)" fill="#8c6239"/>
      <path id="Path_6666" data-name="Path 6666" d="M156.677,416.156a.722.722,0,0,1-.723-.723v-.1a.723.723,0,1,1,1.445,0v.1A.722.722,0,0,1,156.677,416.156Z" transform="translate(-151.595 -413.752)" fill="#8c6239"/>
      <path id="Path_6667" data-name="Path 6667" d="M132.48,406.572a.723.723,0,0,1-.723-.723v-.1a.723.723,0,0,1,1.445,0v.1A.723.723,0,0,1,132.48,406.572Z" transform="translate(-129.562 -405.026)" fill="#8c6239"/>
      <ellipse id="Ellipse_94" data-name="Ellipse 94" cx="1.867" cy="1.837" rx="1.867" ry="1.837" transform="translate(1.035 3.275)" fill="#8c6239"/>
    </g>
    <path id="Path_6668" data-name="Path 6668" d="M333.314,388.38a4.8,4.8,0,0,1-4.838,4.759h0a4.8,4.8,0,0,1-4.838-4.759v-2.15a4.8,4.8,0,0,1,4.838-4.759h0a4.8,4.8,0,0,1,4.838,4.759Z" transform="translate(-252.333 -347.373)" fill="#edd7be"/>
    <g id="Group_1663" data-name="Group 1663" transform="translate(73.241 36.204)">
      <path id="Path_6669" data-name="Path 6669" d="M346.02,416.156a.722.722,0,0,1-.723-.723v-.1a.723.723,0,1,1,1.445,0v.1A.722.722,0,0,1,346.02,416.156Z" transform="translate(-345.297 -413.752)" fill="#8c6239"/>
      <path id="Path_6670" data-name="Path 6670" d="M394.783,416.156a.722.722,0,0,1-.723-.723v-.1a.723.723,0,1,1,1.445,0v.1A.723.723,0,0,1,394.783,416.156Z" transform="translate(-389.702 -413.752)" fill="#8c6239"/>
      <path id="Path_6671" data-name="Path 6671" d="M370.59,406.572a.723.723,0,0,1-.723-.723v-.1a.723.723,0,0,1,1.445,0v.1A.723.723,0,0,1,370.59,406.572Z" transform="translate(-367.672 -405.026)" fill="#8c6239"/>
      <ellipse id="Ellipse_95" data-name="Ellipse 95" cx="1.867" cy="1.837" rx="1.867" ry="1.837" transform="translate(1.035 3.275)" fill="#8c6239"/>
    </g>
    <g id="Group_1664" data-name="Group 1664" transform="translate(57.195 12.903)">
      <ellipse id="Ellipse_96" data-name="Ellipse 96" cx="1.363" cy="1.361" rx="1.363" ry="1.361" fill="#603813"/>
      <ellipse id="Ellipse_97" data-name="Ellipse 97" cx="1.363" cy="1.361" rx="1.363" ry="1.361" transform="translate(13.683)" fill="#603813"/>
      <path id="Path_6672" data-name="Path 6672" d="M180.376,313.546H178.8v-2.739a.487.487,0,0,0-.974,0v3.146a.482.482,0,0,0,.487.487h2.063a.447.447,0,1,0,0-.894Z" transform="translate(-176.75 -295.485)" fill="#603813"/>
      <path id="Path_6673" data-name="Path 6673" d="M211.755,309.937a2.121,2.121,0,0,0-2.174,2.112v.011a2.085,2.085,0,0,0,2.163,2.1,2.121,2.121,0,0,0,2.174-2.111v-.012A2.085,2.085,0,0,0,211.755,309.937Zm-1.16,2.1a1.155,1.155,0,1,1,2.309.012v.011a1.155,1.155,0,1,1-2.309-.011Z" transform="translate(-205.666 -295.136)" fill="#603813"/>
      <path id="Path_6674" data-name="Path 6674" d="M261.214,310.32a.5.5,0,0,0-.467.31l-.964,2.494-.953-2.466a.5.5,0,0,0-.489-.339.479.479,0,0,0-.487.481.591.591,0,0,0,.055.229l1.294,3.1a.56.56,0,0,0,.54.377h.057a.56.56,0,0,0,.54-.377l1.3-3.122a.563.563,0,0,0,.05-.213A.471.471,0,0,0,261.214,310.32Z" transform="translate(-249.624 -295.485)" fill="#603813"/>
      <path id="Path_6675" data-name="Path 6675" d="M306.811,313.912h-1.759v-.741h1.474a.439.439,0,1,0,0-.877h-1.474v-.713h1.73a.439.439,0,1,0,0-.877h-2.211a.482.482,0,0,0-.487.487V314.3a.482.482,0,0,0,.487.487h2.24a.439.439,0,1,0,0-.877Z" transform="translate(-291.722 -295.833)" fill="#603813"/>
    </g>
    <g id="Group_1665" data-name="Group 1665" transform="translate(53.444 16.999)">
      <circle id="Ellipse_98" data-name="Ellipse 98" cx="1.961" cy="1.961" r="1.961" fill="#fa9"/>
      <circle id="Ellipse_99" data-name="Ellipse 99" cx="1.961" cy="1.961" r="1.961" transform="translate(19.707)" fill="#fa9"/>
    </g>
  </g>
</svg>
