<svg xmlns="http://www.w3.org/2000/svg" width="36.458" height="46.933" viewBox="0 0 36.458 46.933">
  <g id="skirt-svgrepo-com" transform="translate(-133.089 -18.985)">
    <path id="Path_6596" data-name="Path 6596" d="M168.267,62.9c-2.558-.658-9.072-26.9-9.072-26.9l-.118-.031.565-.546a6.5,6.5,0,0,0,1.968-4.372,5.835,5.835,0,0,0-4.583-5.7V19.892a.907.907,0,1,0-1.813,0v5.353a5.81,5.81,0,0,0-3.887,2.031,5.858,5.858,0,0,0-3.956-2.037V19.892a.907.907,0,0,0-1.813,0v5.477a5.84,5.84,0,0,0-4.514,5.688,6.245,6.245,0,0,0,1.869,4.285l.658.633-.118.031s-6.514,26.242-9.072,26.9a1.514,1.514,0,0,0,.224,3.012h33.427a1.521,1.521,0,0,0,1.515-1.515,1.5,1.5,0,0,0-1.279-1.5Z" transform="translate(0 0)" fill="#ff9dc6"/>
    <path id="Path_6597" data-name="Path 6597" d="M317.517,35.422a6.5,6.5,0,0,0,1.968-4.372,5.835,5.835,0,0,0-4.583-5.7V19.892a.907.907,0,1,0-1.813,0v5.353a5.81,5.81,0,0,0-3.887,2.031,5.858,5.858,0,0,0-3.956-2.037V19.892a.907.907,0,0,0-1.813,0v5.477a5.84,5.84,0,0,0-4.514,5.688,6.245,6.245,0,0,0,1.869,4.285l.615.59s4.4.416,7.694.416,7.9-.416,7.9-.416l.522-.509Z" transform="translate(-157.875)" fill="#fc6b8a"/>
    <path id="Path_6598" data-name="Path 6598" d="M308.681,444.972a.3.3,0,0,1-.242-.118.313.313,0,0,1,.043-.435c2.074-1.677,4.4-14.245,5.123-18.94a.311.311,0,1,1,.615.093c-.006.043-.664,4.316-1.639,8.793-1.316,6.067-2.565,9.613-3.707,10.538A.317.317,0,0,1,308.681,444.972Zm18.865,0a.317.317,0,0,1-.193-.068c-1.143-.925-2.391-4.471-3.707-10.538-.975-4.477-1.633-8.75-1.639-8.793a.311.311,0,1,1,.615-.093c.72,4.7,3.055,17.263,5.123,18.94a.307.307,0,0,1,.044.435.315.315,0,0,1-.242.118Zm-9.408-.553a.307.307,0,0,1-.31-.31l.019-18.586a.311.311,0,0,1,.621,0l-.019,18.586A.307.307,0,0,1,318.139,444.419Z" transform="translate(-166.874 -386.741)" fill="#ff6a9b"/>
    <path id="Path_6599" data-name="Path 6599" d="M260.923,911.583a12.864,12.864,0,0,1-1.993-.789.79.79,0,0,0-.789.789.829.829,0,0,0,.255.578l1.136,1.093,1.118-1.08A.853.853,0,0,0,260.923,911.583Zm7.371.658a12.9,12.9,0,0,1-1.993-.789.79.79,0,0,0-.789.789.828.828,0,0,0,.255.577l1.136,1.093,1.118-1.08a.853.853,0,0,0,.273-.59Zm7.365,0a12.9,12.9,0,0,1-1.993-.789.79.79,0,0,0-.789.789.828.828,0,0,0,.255.577l1.136,1.093,1.118-1.08A.853.853,0,0,0,275.659,912.241Zm7.489-.658a12.86,12.86,0,0,1-1.993-.789.79.79,0,0,0-.789.789.829.829,0,0,0,.255.578l1.136,1.093,1.118-1.08A.853.853,0,0,0,283.148,911.583Z" transform="translate(-119.054 -849.03)" fill="#ff5c7a"/>
  </g>
</svg>
